PathFileType	4	(X/Y/Z)	/Users/itak/Documents/Research/Walk-IL/dataset/trc/00200_00008.trc
DataRate	CameraRate	NumFrames	NumMarkers	Units	OrigDataRate	OrigDataStartFrame	OrigNumFrames
100.000000	100.000000	4	53	mm	100.000000	481	550
Frame#	Time	RPSI			LPSI			L3			STRN			T10			C7			CLAV			RBAK			LBAK			LSHO			LUPA			LAEL			LAOL			LWTS			LWPS			LFRA			LIFD			LHPS			LHTS			RSHO			RUPA			RAEL			RAOL			RWTS			RWPS			RFRA			RIFD			RHTS			RHPS			RBHD			LFHD			RFHD			LBHD			LHIP			RHIP			RASI			LASI			LKNE			LTHI			LANK			LTIP			LTOE			LMT1			LMT5			LHEE			RKNE			RTHI			RANK			RTIP			RTOE			RMT1			RMT5			RHEE			
		X1	Y1	Z1	X2	Y2	Z2	X3	Y3	Z3	X4	Y4	Z4	X5	Y5	Z5	X6	Y6	Z6	X7	Y7	Z7	X8	Y8	Z8	X9	Y9	Z9	X10	Y10	Z10	X11	Y11	Z11	X12	Y12	Z12	X13	Y13	Z13	X14	Y14	Z14	X15	Y15	Z15	X16	Y16	Z16	X17	Y17	Z17	X18	Y18	Z18	X19	Y19	Z19	X20	Y20	Z20	X21	Y21	Z21	X22	Y22	Z22	X23	Y23	Z23	X24	Y24	Z24	X25	Y25	Z25	X26	Y26	Z26	X27	Y27	Z27	X28	Y28	Z28	X29	Y29	Z29	X30	Y30	Z30	X31	Y31	Z31	X32	Y32	Z32	X33	Y33	Z33	X34	Y34	Z34	X35	Y35	Z35	X36	Y36	Z36	X37	Y37	Z37	X38	Y38	Z38	X39	Y39	Z39	X40	Y40	Z40	X41	Y41	Z41	X42	Y42	Z42	X43	Y43	Z43	X44	Y44	Z44	X45	Y45	Z45	X46	Y46	Z46	X47	Y47	Z47	X48	Y48	Z48	X49	Y49	Z49	X50	Y50	Z50	X51	Y51	Z51	X52	Y52	Z52	X53	Y53	Z53	

482	4.81	274.8461608886719	1055.981811523438	748.5069580078125	399.3349914550781	1055.846923828125	756.7989501953125	334.0231018066406	1089.766723632812	751.7931518554688	329.4425659179688	1318.141235351562	998.7000732421875	343.94873046875	1238.27685546875	703.8075561523438	361.3392944335938	1512.206298828125	745.6133422851562	342.5056457519531	1427.60205078125	957.6409912109375	249.0168151855469	1334.867065429688	689.1455078125	461.5468444824219	1484.86279296875	745.7327880859375	534.8412475585938	1474.852661132812	829.7694091796875	602.3123168945312	1335.942626953125	815.2345581054688	599.9185791015625	1120.055541992188	853.5152587890625	522.494140625	1104.872192382812	811.234375	563.122802734375	895.373779296875	977.7540283203125	598.3077392578125	869.7115478515625	895.2169799804688	607.8292846679688	1010.578002929688	872.8908081054688	530.2437744140625	712.5296020507812	995.96435546875	592.0671997070312	801.3392944335938	919.0165405273438	578.5335693359375	815.0917358398438	989.546142578125	176.1719818115234	1503.188232421875	801.2927856445312	105.1375122070312	1437.414184570312	784.3456420898438	33.25217056274414	1153.167114257812	799.8677978515625	129.9973449707031	1137.759033203125	799.0216064453125	32.02813339233398	943.0374755859375	964.6693115234375	-14.20097732543945	921.0165405273438	890.2213134765625	8.625752449035645	1085.6533203125	831.8262329101562	42.19046401977539	754.0220336914062	999.0742797851562	17.21342468261719	852.892333984375	999.8013305664062	-18.19384765625	841.899169921875	928.0317993164062	284.6097106933594	1682.966430664062	783.289794921875	424.6615295410156	1739.766235351562	940.1397705078125	296.546630859375	1743.514282226562	947.5439453125	420.9681396484375	1686.278564453125	767.7446899414062	510.1976318359375	999.5578002929688	868.7341918945312	132.7589111328125	1026.841552734375	907.0283203125	193.0274200439453	1053.310424804688	982.5543212890625	450.1320495605469	1040.123901367188	991.7454833984375	483.8424377441406	507.3489990234375	863.4923095703125	508.5582885742188	648.3809814453125	879.691650390625	496.8440551757812	46.07012176513672	760.7020874023438	503.7322998046875	285.8223571777344	814.2489013671875	468.5091857910156	42.68339538574219	982.6152954101562	423.1547241210938	45.366455078125	929.21630859375	536.4661865234375	37.44353866577148	869.3768310546875	428.7926330566406	47.1611213684082	709.2952880859375	175.3639526367188	517.6431884765625	879.3292236328125	133.8658599853516	784.73291015625	938.7520751953125	201.9886016845703	38.46734619140625	773.7531127929688	196.7749328613281	400.5447998046875	883.3955688476562	222.1287078857422	43.65136337280273	999.4444580078125	269.7130126953125	45.59075927734375	948.239013671875	158.4430847167969	37.08965682983398	881.8867797851562	272.500732421875	39.00023651123047	727.7649536132812	
483	4.82	274.8458251953125	1055.926879882812	749.4893798828125	399.3580627441406	1055.824096679688	757.76318359375	333.9666442871094	1089.688842773438	752.7861328125	329.3387145996094	1318.036010742188	999.7361450195312	343.9874572753906	1238.18359375	704.8167724609375	361.6354064941406	1512.08642578125	746.6087036132812	342.4819030761719	1427.463134765625	958.6768188476562	249.1504058837891	1334.829345703125	690.067626953125	461.7794799804688	1484.682983398438	746.8218383789062	535.0445556640625	1474.57666015625	830.9564208984375	602.439453125	1335.600708007812	816.0316772460938	599.5009765625	1119.697875976562	852.9237060546875	521.7723999023438	1104.920654296875	810.9322509765625	563.728515625	892.5203247070312	972.9806518554688	598.671875	868.92138671875	889.72021484375	607.6947631835938	1010.142211914062	870.36328125	531.236083984375	709.0693359375	986.3560180664062	592.6146240234375	799.9776611328125	911.8173217773438	579.1777954101562	811.8250122070312	982.7222900390625	176.4124298095703	1503.22705078125	802.10888671875	105.3233795166016	1437.507690429688	785.0927124023438	33.01012802124023	1153.365478515625	800.6204223632812	129.6687164306641	1137.862548828125	799.7638549804688	31.73132133483887	943.558349609375	965.8594970703125	-14.57177829742432	921.3926391601562	891.514892578125	8.241573333740234	1085.879150390625	832.69287109375	41.80710983276367	754.6262817382812	1000.709899902344	16.7376823425293	853.5269165039062	1001.106567382812	-18.5865535736084	842.3547973632812	929.5340576171875	284.7455749511719	1682.583862304688	783.7186889648438	424.552734375	1739.967407226562	940.5482788085938	296.4609985351562	1743.583618164062	947.8389282226562	421.1361999511719	1686.026611328125	768.3074340820312	509.9948425292969	999.5383911132812	869.7810668945312	132.4886016845703	1026.828002929688	907.882080078125	192.8441467285156	1053.14794921875	983.3895874023438	450.0077514648438	1040.093994140625	992.8018798828125	483.8209838867188	507.3787231445312	863.9039916992188	508.5016784667969	648.33349609375	880.3038330078125	496.8835754394531	46.04071426391602	760.6932983398438	503.7550354003906	285.8599853515625	814.4431762695312	468.541259765625	42.66841125488281	982.5963134765625	423.1886291503906	45.40878677368164	929.2022705078125	536.5118408203125	37.39410018920898	869.3761596679688	428.8328552246094	47.20607376098633	709.3084106445312	175.3051910400391	517.5252685546875	879.4256591796875	133.7989959716797	784.5060424804688	939.26806640625	202.0399017333984	38.48340225219727	773.7279663085938	196.75390625	400.5061340332031	883.433837890625	222.1129760742188	43.65127563476562	999.4494018554688	269.7401428222656	45.63390350341797	948.2352905273438	158.4486999511719	37.09824752807617	881.880126953125	272.5415649414062	38.95565032958984	727.7403564453125	
484	4.83	274.8530578613281	1055.856079101562	750.3842163085938	399.3966674804688	1055.787719726562	758.6366577148438	333.9310302734375	1089.61083984375	753.7042846679688	329.2699584960938	1317.875610351562	1000.729064941406	344.0325317382812	1238.109741210938	705.7801513671875	361.9203186035156	1511.98583984375	747.616455078125	342.4891052246094	1427.29052734375	959.6947021484375	249.2948913574219	1334.807739257812	690.9674682617188	462.0046691894531	1484.522094726562	747.9071655273438	535.2434692382812	1474.318237304688	832.119873046875	602.6148071289062	1335.310302734375	816.7286987304688	599.263671875	1119.380981445312	852.1455078125	521.2386474609375	1104.969360351562	810.436767578125	564.5016479492188	889.9735717773438	968.3035278320312	599.2166748046875	868.28564453125	884.41357421875	607.7386474609375	1009.781494140625	867.7907104492188	532.4141845703125	706.0883178710938	977.2297973632812	593.335205078125	798.8547973632812	904.9400634765625	579.989501953125	808.9454956054688	976.1519775390625	176.6509094238281	1503.244506835938	802.9530029296875	105.5093231201172	1437.571899414062	785.8656616210938	32.85445022583008	1153.507202148438	801.3544921875	129.41357421875	1137.929077148438	800.4691162109375	31.57313919067383	943.9791259765625	966.981689453125	-14.80764102935791	921.6903076171875	892.726806640625	7.945395469665527	1086.048706054688	833.5316772460938	41.58319854736328	755.1422729492188	1002.221374511719	16.42809867858887	854.0652465820312	1002.332641601562	-18.81142044067383	842.7216796875	930.9390258789062	284.9452209472656	1682.16552734375	784.103515625	424.4960632324219	1740.162475585938	940.9421997070312	296.4340209960938	1743.703735351562	948.0850219726562	421.3698120117188	1685.700439453125	768.868896484375	509.7881164550781	999.4403686523438	870.741455078125	132.2532806396484	1026.791748046875	908.677734375	192.6958618164062	1052.962646484375	984.166748046875	449.8795166015625	1039.985595703125	993.771728515625	483.785400390625	507.359375	864.2990112304688	508.3975219726562	648.2195434570312	880.8831176757812	496.9203796386719	45.99737930297852	760.6802978515625	503.7504272460938	285.8466796875	814.6484985351562	468.5708618164062	42.66112899780273	982.5796508789062	423.2125549316406	45.43985366821289	929.1875610351562	536.548583984375	37.35201263427734	869.369873046875	428.8605346679688	47.20688629150391	709.3123168945312	175.2528991699219	517.4003295898438	879.4998168945312	133.7850646972656	784.2554321289062	939.758544921875	202.0946807861328	38.49629211425781	773.701904296875	196.7400512695312	400.4688415527344	883.4462280273438	222.0987243652344	43.65164184570312	999.455810546875	269.7640380859375	45.6684684753418	948.2313232421875	158.4552917480469	37.10773849487305	881.8706665039062	272.5844116210938	38.9011344909668	727.7116088867188	
485	4.84	274.8747863769531	1055.776611328125	751.19140625	399.4466552734375	1055.73876953125	759.424560546875	333.9335327148438	1089.536376953125	754.546630859375	329.2387084960938	1317.662353515625	1001.679138183594	344.0942687988281	1238.054321289062	706.6953735351562	362.188232421875	1511.900390625	748.637939453125	342.5310363769531	1427.08447265625	960.6928100585938	249.4488677978516	1334.802490234375	691.8455810546875	462.2181701660156	1484.384155273438	748.9844970703125	535.4344482421875	1474.077514648438	833.2537231445312	602.8360595703125	1335.074462890625	817.3216552734375	599.2125244140625	1119.10595703125	851.1874389648438	520.9034423828125	1105.021484375	809.7443237304688	565.4329833984375	887.7339477539062	963.7608032226562	599.9381713867188	867.7796630859375	879.3344116210938	607.962646484375	1009.486389160156	865.1893920898438	533.7055053710938	703.5425415039062	968.6829223632812	594.2235107421875	797.9403076171875	898.438720703125	580.95556640625	806.4429321289062	969.8958129882812	176.8809204101562	1503.239379882812	803.8301391601562	105.6943283081055	1437.609497070312	786.6670532226562	32.77093505859375	1153.594116210938	802.0679321289062	129.2322845458984	1137.953491210938	801.1397094726562	31.54830932617188	944.2977905273438	968.0299072265625	-14.90873336791992	921.9016723632812	893.8516235351562	7.743605613708496	1086.162719726562	834.34619140625	41.51985931396484	755.5606689453125	1003.605407714844	16.28969383239746	854.4974365234375	1003.477416992188	-18.86679077148438	842.991455078125	932.2382202148438	285.2059631347656	1681.712524414062	784.4557495117188	424.4955444335938	1740.350219726562	941.3262939453125	296.4623718261719	1743.868774414062	948.2880859375	421.66259765625	1685.302001953125	769.4324340820312	509.5819702148438	999.2713012695312	871.615966796875	132.0638275146484	1026.736083984375	909.4259033203125	192.5934295654297	1052.758056640625	984.8963623046875	449.7518615722656	1039.806030273438	994.6557006835938	483.7340087890625	507.2906188964844	864.6826782226562	508.2427368164062	648.0455322265625	881.4334716796875	496.9436950683594	45.94271087646484	760.6656494140625	503.7070922851562	285.779052734375	814.8630981445312	468.5973815917969	42.66030502319336	982.5690307617188	423.2248229980469	45.45844650268555	929.176025390625	536.5719604492188	37.32089614868164	869.35791015625	428.8613891601562	47.16153717041016	709.3113403320312	175.2048187255859	517.2693481445312	879.5557861328125	133.8202514648438	783.98974609375	940.23388671875	202.146728515625	38.50209808349609	773.6762084960938	196.7308349609375	400.4334411621094	883.4368286132812	222.0877532958984	43.65304946899414	999.4622192382812	269.7793884277344	45.68717956542969	948.2269897460938	158.46044921875	37.11593627929688	881.8575439453125	272.6246948242188	38.83890533447266	727.6803588867188	
